{"title":"Kelly Wells - Fuck Fiends 4","uid":10796333,"size":407333863,"categoryP":"porn","categoryS":"movie_clips","magnet":"?xt=urn:btih:d7ae04fca93704a0bef7da27f4b58a3fe6ba6353&amp;dn=Kelly+Wells+-+Fuck+Fiends+4&amp;tr=udp%3A%2F%2Ftracker.openbittorrent.com%3A80&amp;tr=udp%3A%2F%2Fopen.demonii.com%3A1337&amp;tr=udp%3A%2F%2Ftracker.coppersurfer.tk%3A6969&amp;tr=udp%3A%2F%2Fexodus.desync.com%3A6969","seeders":1,"leechers":0,"uploader":"ThousandPeers","files":-1,"time":1408297415,"description":"Video\nID                                       : 0\nFormat                                   : MPEG-4 Visual\nFormat profile                           : Advanced Simple@L5\nFormat settings, BVOP                    : 2\nFormat settings, QPel                    : No\nFormat settings, GMC                     : No warppoints\nFormat settings, Matrix                  : Default (H.263)\nMuxing mode                              : Packed bitstream\nCodec ID                                 : XVID\nCodec ID/Hint                            : XviD\nDuration                                 : 38mn 24s\nBit rate                                 : 939 Kbps\nWidth                                    : 576 pixels\nHeight                                   : 320 pixels\nDisplay aspect ratio                     : 16:9\nFrame rate                               : 29.970 fps\nColor space                              : YUV\nChroma subsampling                       : 4:2:0\nBit depth                                : 8 bits\nScan type                                : Progressive\nCompression mode                         : Lossy\nBits/(Pixel*Frame)                       : 0.170\nStream size                              : 258 MiB (87%)\nWriting library                          : XviD 1.0.2 (UTC 2004-08-29)\n\nAudio\nID                                       : 1\nFormat                                   : MPEG Audio\nFormat version                           : Version 1\nFormat profile                           : Layer 3\nMode                                     : Joint stereo\nMode extension                           : MS Stereo\nCodec ID                                 : 55\nCodec ID/Hint                            : MP3\nDuration                                 : 38mn 24s\nBit rate mode                            : Variable\nBit rate                                 : 128 Kbps\nChannel(s)                               : 2 channels\nSampling rate                            : 48.0 KHz\nCompression mode                         : Lossy\nStream size                              : 34.6 MiB (12%)\nAlignment                                : Aligned on interleaves\nInterleave, duration                     : 24 ms (0.72 video frame)\nInterleave, preload duration             : 247 ms\nWriting library                          : LAME3.90.","torrent":{"xt":"urn:btih:d7ae04fca93704a0bef7da27f4b58a3fe6ba6353","amp;dn":"Kelly+Wells+-+Fuck+Fiends+4","amp;tr":["udp%3A%2F%2Ftracker.openbittorrent.com%3A80","udp%3A%2F%2Fopen.demonii.com%3A1337","udp%3A%2F%2Ftracker.coppersurfer.tk%3A6969","udp%3A%2F%2Fexodus.desync.com%3A6969"],"infoHash":"d7ae04fca93704a0bef7da27f4b58a3fe6ba6353","infoHashBuffer":{"type":"Buffer","data":[215,174,4,252,169,55,4,160,190,247,218,39,244,181,138,63,230,186,99,83]},"announce":[],"urlList":[]}}